<svg width="173" height="77" viewBox="0 0 173 77" fill="none" xmlns="http://www.w3.org/2000/svg">
<path d="M98.2821 50.0874C96.2357 50.0874 95.2125 48.9653 95.2125 46.721V29.6775C95.2125 28.5641 95.4754 27.6993 96.0049 27.1463C96.2935 26.8605 96.6387 26.6385 97.0182 26.4947C97.3976 26.3508 97.803 26.2883 98.208 26.3112H98.893C99.2568 26.3061 99.6203 26.3372 99.9779 26.404C100.258 26.4607 100.526 26.5649 100.77 26.712C101.017 26.8623 101.242 27.0445 101.441 27.2539C101.644 27.4692 101.877 27.7253 102.144 27.9962L110.516 38.923V29.6441C110.516 27.4172 111.568 26.2778 113.66 26.2778H114.274C116.296 26.2778 117.306 27.3999 117.303 29.6441V46.6876C117.303 47.8234 117.044 48.6659 116.529 49.2226C116.25 49.5057 115.915 49.7262 115.545 49.8695C115.174 50.0128 114.778 50.0757 114.382 50.054H113.804C113.432 50.06 113.06 50.0301 112.693 49.9649C112.418 49.9127 112.151 49.8214 111.901 49.694C111.662 49.5639 111.443 49.3987 111.253 49.2041C111.045 48.9999 110.823 48.7512 110.583 48.4617L102.029 37.3531V46.6876C102.029 48.9343 100.981 50.0565 98.8856 50.054L98.2821 50.0874Z" fill="#928681"/>
<path d="M138.538 47.3001C137.872 48.2497 136.961 49.0002 135.902 49.4714C134.593 50.0386 133.176 50.311 131.751 50.2694C130.177 50.2922 128.615 49.9837 127.167 49.3637C125.833 48.7871 124.638 47.9287 123.664 46.8473C122.684 45.7322 121.929 44.4362 121.443 43.0318C120.898 41.4735 120.629 39.8319 120.647 38.1808C120.63 36.5077 120.944 34.8478 121.569 33.2964C122.155 31.8396 123.038 30.5212 124.161 29.4252C125.321 28.3151 126.694 27.4527 128.197 26.8903C129.872 26.2694 131.647 25.9636 133.432 25.9883C134.749 25.9705 136.063 26.1113 137.346 26.4078C138.368 26.6371 139.349 27.024 140.253 27.5546C140.984 27.9774 141.603 28.5691 142.06 29.2805C142.462 29.9313 142.674 30.6824 142.671 31.448C142.691 32.0442 142.499 32.6283 142.13 33.096C141.802 33.5169 141.399 33.8731 140.942 34.1464C140.559 34.3801 140.145 34.5575 139.712 34.6734C139.342 34.7699 139.112 34.781 139.064 34.7068C138.452 33.9194 137.666 33.2843 136.769 32.851C135.863 32.4162 134.87 32.1941 133.866 32.2015C133.067 32.1923 132.275 32.3451 131.537 32.6506C130.829 32.9513 130.19 33.3933 129.659 33.9496C129.108 34.5326 128.678 35.2204 128.397 35.9724C128.084 36.8023 127.931 37.6837 127.945 38.5705C127.932 39.4541 128.072 40.3333 128.36 41.1686C128.613 41.8993 129.005 42.5736 129.515 43.1543C130.005 43.7036 130.607 44.1404 131.281 44.4348C131.995 44.7382 132.764 44.8911 133.54 44.8839C134.641 44.9404 135.733 44.6496 136.661 44.0525C137.421 43.5313 137.947 42.7315 138.124 41.8256H135.706C134.573 41.8256 133.724 41.6573 133.158 41.3208C132.596 40.983 132.31 40.3187 132.31 39.3277V39.0048C132.31 37.968 132.588 37.2925 133.144 36.9783C133.699 36.664 134.553 36.5069 135.706 36.5069H142.06C143.094 36.5069 143.774 36.7605 144.1 37.2678C144.422 37.7725 144.574 38.5445 144.548 39.5838V49.3897C144.548 49.5085 144.307 49.6607 143.826 49.8425C143.281 50.034 142.707 50.1258 142.13 50.1135C141.766 50.1137 141.403 50.0713 141.049 49.9873C140.684 49.9006 140.336 49.7539 140.02 49.553C139.677 49.3311 139.382 49.042 139.153 48.7031C138.875 48.2828 138.673 47.8166 138.557 47.3261" fill="#928681"/>
<path d="M158.559 37.4571C159.648 37.4571 160.463 37.2232 161.011 36.7519C161.287 36.5001 161.504 36.1893 161.645 35.8425C161.786 35.4956 161.847 35.1215 161.825 34.7476C161.825 32.9092 160.714 31.9912 158.493 31.9936H155.531V37.4571H158.559ZM169.297 47.6007C169.345 47.675 169.297 47.842 169.171 48.1092C168.99 48.4341 168.751 48.7224 168.464 48.9592C168.068 49.298 167.617 49.5666 167.131 49.7535C166.499 49.9975 165.824 50.1148 165.147 50.0986C164.647 50.1062 164.149 50.045 163.665 49.9168C163.229 49.7956 162.814 49.6064 162.436 49.3563C162.034 49.0881 161.67 48.7659 161.355 48.3987C161.017 48.0127 160.655 47.5537 160.27 47.0217L156.986 42.6458H155.653V46.7285C155.653 47.8123 155.386 48.6474 154.857 49.2264C154.327 49.8054 153.531 50.0949 152.472 50.0949H151.461C151.016 50.1196 150.572 50.0303 150.171 49.8355C149.77 49.6407 149.426 49.3468 149.169 48.9814C148.654 48.2391 148.395 47.2147 148.395 45.8897V30.5461C148.395 29.2211 148.714 28.2116 149.351 27.5249C149.987 26.8383 150.909 26.4931 152.113 26.4931H159.3C162.573 26.4931 165.016 27.1451 166.628 28.4491C168.24 29.7531 169.046 31.6707 169.046 34.202C169.096 35.749 168.65 37.2713 167.772 38.5445C166.84 39.7808 165.516 40.6619 164.017 41.0424L169.297 47.6007Z" fill="#928681"/>
<path d="M68.5824 26.9014H62.5247C62.384 25.246 62.1545 23.9322 61.8508 23.2567C59.9365 18.903 54.7934 16.0822 49.9798 14.939V8.25824C49.9798 7.6589 49.862 7.06544 49.6331 6.51177C49.4041 5.9581 49.0686 5.45508 48.6456 5.03146C48.2227 4.60783 47.7206 4.27191 47.168 4.04289C46.6155 3.81387 46.0233 3.69625 45.4254 3.69673H31.3957C30.1884 3.69673 29.0306 4.1772 28.1766 5.03254C27.3226 5.88788 26.8423 7.04811 26.8413 8.25824V14.8574C27.7522 14.7201 28.6927 14.6161 29.6739 14.5382C28.7038 14.6161 27.7522 14.7201 26.8413 14.8574C26.3525 14.9316 25.8712 15.0096 25.4046 15.1061C18.3102 16.5907 15.3146 19.9905 14.5297 26.9014H8.26089C7.05265 26.9014 5.89384 27.3823 5.03914 28.2383C4.18444 29.0943 3.70378 30.2555 3.7028 31.4666V45.5297C3.70378 46.7408 4.18444 47.902 5.03914 48.758C5.89384 49.6141 7.05265 50.0949 8.26089 50.0949H14.6185C14.6185 49.991 14.6 49.8834 14.5889 49.7757C14.5889 49.8834 14.5889 49.991 14.6185 50.0949C15.4109 57.5626 20.6799 60.3648 26.8376 61.4449V68.7233C26.8386 69.9344 27.3192 71.0955 28.1739 71.9516C29.0286 72.8076 30.1875 73.2885 31.3957 73.2885H45.4217C46.0198 73.2885 46.612 73.1704 47.1646 72.941C47.7172 72.7115 48.2192 72.3753 48.6422 71.9513C49.0651 71.5274 49.4005 71.0242 49.6294 70.4703C49.8583 69.9164 49.9761 69.3228 49.9761 68.7233V62.447L50.6463 62.3839C57.7815 61.7121 61.2029 56.412 62.2915 50.1024H68.5824C69.7897 50.1014 70.9472 49.62 71.8005 48.7639C72.6538 47.9079 73.1331 46.7473 73.1331 45.5371V31.4666C73.1331 30.2565 72.6538 29.0959 71.8005 28.2398C70.9472 27.3838 69.7897 26.9024 68.5824 26.9014Z" fill="white"/>
<path d="M98.2821 50.0874C96.2357 50.0874 95.2125 48.9653 95.2125 46.721V29.6775C95.2125 28.5641 95.4754 27.6993 96.0049 27.1463C96.2935 26.8605 96.6387 26.6385 97.0182 26.4947C97.3976 26.3508 97.803 26.2883 98.208 26.3112H98.893C99.2568 26.3061 99.6203 26.3372 99.9779 26.404C100.258 26.4607 100.526 26.5649 100.77 26.712C101.017 26.8623 101.242 27.0445 101.441 27.2539C101.644 27.4692 101.877 27.7253 102.144 27.9962L110.516 38.923V29.6441C110.516 27.4172 111.568 26.2778 113.66 26.2778H114.274C116.296 26.2778 117.306 27.3999 117.303 29.6441V46.6876C117.303 47.8234 117.044 48.6659 116.529 49.2226C116.25 49.5057 115.915 49.7262 115.545 49.8695C115.174 50.0128 114.778 50.0757 114.382 50.054H113.804C113.432 50.06 113.06 50.0301 112.693 49.9649C112.418 49.9127 112.151 49.8214 111.901 49.694C111.662 49.5639 111.443 49.3987 111.253 49.2041C111.045 48.9999 110.823 48.7512 110.583 48.4617L102.029 37.3531V46.6876C102.029 48.9343 100.981 50.0565 98.8856 50.054L98.2821 50.0874Z" fill="#928681"/>
<path d="M138.538 47.3001C137.872 48.2497 136.961 49.0002 135.902 49.4714C134.593 50.0386 133.176 50.311 131.751 50.2694C130.177 50.2922 128.615 49.9837 127.167 49.3637C125.833 48.7871 124.638 47.9287 123.664 46.8473C122.684 45.7322 121.929 44.4362 121.443 43.0318C120.898 41.4735 120.629 39.8319 120.647 38.1808C120.63 36.5077 120.944 34.8478 121.569 33.2964C122.155 31.8396 123.038 30.5212 124.161 29.4252C125.321 28.3151 126.694 27.4527 128.197 26.8903C129.872 26.2694 131.647 25.9636 133.432 25.9883C134.749 25.9705 136.063 26.1113 137.346 26.4078C138.368 26.6371 139.349 27.024 140.253 27.5546C140.984 27.9774 141.603 28.5691 142.06 29.2805C142.462 29.9313 142.674 30.6824 142.671 31.448C142.691 32.0442 142.499 32.6283 142.13 33.096C141.802 33.5169 141.399 33.8731 140.942 34.1464C140.559 34.3801 140.145 34.5575 139.712 34.6734C139.342 34.7699 139.112 34.781 139.064 34.7068C138.452 33.9194 137.666 33.2843 136.769 32.851C135.863 32.4162 134.87 32.1941 133.866 32.2015C133.067 32.1923 132.275 32.3451 131.537 32.6506C130.829 32.9513 130.19 33.3933 129.659 33.9496C129.108 34.5326 128.678 35.2204 128.397 35.9724C128.084 36.8023 127.931 37.6837 127.945 38.5705C127.932 39.4541 128.072 40.3333 128.36 41.1686C128.613 41.8993 129.005 42.5736 129.515 43.1543C130.005 43.7036 130.607 44.1404 131.281 44.4348C131.995 44.7382 132.764 44.8911 133.54 44.8839C134.641 44.9404 135.733 44.6496 136.661 44.0525C137.421 43.5313 137.947 42.7315 138.124 41.8256H135.706C134.573 41.8256 133.724 41.6573 133.158 41.3208C132.596 40.983 132.31 40.3187 132.31 39.3277V39.0048C132.31 37.968 132.588 37.2925 133.144 36.9783C133.699 36.664 134.553 36.5069 135.706 36.5069H142.06C143.094 36.5069 143.774 36.7605 144.1 37.2678C144.422 37.7725 144.574 38.5445 144.548 39.5838V49.3897C144.548 49.5085 144.307 49.6607 143.826 49.8425C143.281 50.034 142.707 50.1258 142.13 50.1135C141.766 50.1137 141.403 50.0713 141.049 49.9873C140.684 49.9006 140.336 49.7539 140.02 49.553C139.677 49.3311 139.382 49.042 139.153 48.7031C138.875 48.2828 138.673 47.8166 138.557 47.3261" fill="#928681"/>
<path d="M158.559 37.4571C159.648 37.4571 160.463 37.2232 161.011 36.7519C161.287 36.5001 161.504 36.1893 161.645 35.8425C161.786 35.4956 161.847 35.1215 161.825 34.7476C161.825 32.9092 160.714 31.9912 158.493 31.9936H155.531V37.4571H158.559ZM169.297 47.6007C169.345 47.675 169.297 47.842 169.171 48.1092C168.99 48.4341 168.751 48.7224 168.464 48.9592C168.068 49.298 167.617 49.5666 167.131 49.7535C166.499 49.9975 165.824 50.1148 165.147 50.0986C164.647 50.1062 164.149 50.045 163.665 49.9168C163.229 49.7956 162.814 49.6064 162.436 49.3563C162.034 49.0881 161.67 48.7659 161.355 48.3987C161.017 48.0127 160.655 47.5537 160.27 47.0217L156.986 42.6458H155.653V46.7285C155.653 47.8123 155.386 48.6474 154.857 49.2264C154.327 49.8054 153.531 50.0949 152.472 50.0949H151.461C151.016 50.1196 150.572 50.0303 150.171 49.8355C149.77 49.6407 149.426 49.3468 149.169 48.9814C148.654 48.2391 148.395 47.2147 148.395 45.8897V30.5461C148.395 29.2211 148.714 28.2116 149.351 27.5249C149.987 26.8383 150.909 26.4931 152.113 26.4931H159.3C162.573 26.4931 165.016 27.1451 166.628 28.4491C168.24 29.7531 169.046 31.6707 169.046 34.202C169.096 35.749 168.65 37.2713 167.772 38.5445C166.84 39.7808 165.516 40.6619 164.017 41.0424L169.297 47.6007Z" fill="#928681"/>
<path d="M30.1181 61.4967C29.0073 61.4002 27.8965 61.2592 26.8412 61.0736V68.352C26.8422 69.5631 27.3228 70.7243 28.1775 71.5803C29.0322 72.4363 30.1911 72.9172 31.3993 72.9172H45.4253C46.0234 72.9172 46.6156 72.7991 47.1682 72.5697C47.7208 72.3403 48.2228 72.004 48.6458 71.5801C49.0687 71.1562 49.4041 70.6529 49.633 70.099C49.8619 69.5451 49.9797 68.9515 49.9797 68.352V62.0757C43.685 62.6585 36.5091 62.1611 30.1181 61.5042" fill="#FAC26F"/>
<path d="M45.4698 14.026C46.9886 14.0368 48.5014 14.2186 49.9797 14.5679V7.88711C49.9797 7.28777 49.8619 6.69431 49.633 6.14064C49.404 5.58697 49.0685 5.08395 48.6455 4.66032C48.2226 4.2367 47.7205 3.90078 47.1679 3.67176C46.6154 3.44274 46.0232 3.32511 45.4253 3.3256H31.3956C30.1883 3.3256 29.0305 3.80607 28.1765 4.66141C27.3224 5.51675 26.8422 6.67698 26.8412 7.88711V14.4863C32.5953 13.6178 39.8379 14.026 45.4698 14.026Z" fill="#FAC26F"/>
<path d="M14.4667 27.1241C14.4889 26.9237 14.5111 26.7269 14.5296 26.5302H8.26089C7.05265 26.5302 5.89384 27.0111 5.03914 27.8671C4.18444 28.7232 3.70378 29.8843 3.7028 31.0954V45.1585C3.70378 46.3697 4.18444 47.5308 5.03914 48.3869C5.89384 49.2429 7.05265 49.7238 8.26089 49.7238H14.6185C14.6 49.5345 14.5778 49.3526 14.563 49.1448C13.8224 38.5817 13.9594 32.606 14.4667 27.1241Z" fill="#FAC26F"/>
<path d="M68.5823 26.5302H62.5246C62.9838 31.9083 62.6764 41.0053 62.6986 44.6575C62.7084 46.355 62.5708 48.0501 62.2876 49.7238H68.5823C69.7896 49.7228 70.9471 49.2414 71.8004 48.3853C72.6537 47.5293 73.133 46.3687 73.133 45.1585V31.0954C73.133 29.8853 72.6537 28.7247 71.8004 27.8687C70.9471 27.0126 69.7896 26.5312 68.5823 26.5302Z" fill="#FAC26F"/>
<path d="M22.298 26.5303C23.5059 26.5303 24.6643 26.0493 25.5185 25.1931C26.3726 24.337 26.8524 23.1758 26.8524 21.965V14.4862C26.3636 14.5605 25.8823 14.6384 25.4157 14.7349C18.3213 16.2195 15.3257 19.6193 14.5407 26.5303H22.3165H22.298Z" fill="#F18925"/>
<path d="M49.9798 21.965C49.9808 23.1748 50.4604 24.3348 51.3135 25.1907C52.1666 26.0465 53.3235 26.5282 54.5305 26.5302H62.5247C62.384 24.8748 62.1545 23.5609 61.8508 22.8854C59.9365 18.5318 54.7934 15.711 49.9798 14.5678V21.9501V21.965Z" fill="#F18925"/>
<path d="M54.5305 49.7237C53.3251 49.7266 52.1699 50.2076 51.3172 51.0617C50.4645 51.9157 49.9837 53.0733 49.9798 54.2815V62.0758L50.65 62.0127C57.7852 61.3409 61.2066 56.0408 62.2952 49.7311H54.5194L54.5305 49.7237Z" fill="#F18925"/>
<path d="M26.8413 54.2815C26.8413 53.682 26.7235 53.0884 26.4946 52.5345C26.2657 51.9806 25.9302 51.4773 25.5073 51.0534C25.0844 50.6295 24.5823 50.2932 24.0298 50.0638C23.4772 49.8344 22.885 49.7163 22.2869 49.7163H14.6185C15.4109 57.184 20.6799 59.9862 26.8376 61.0663V54.2815H26.8413Z" fill="#F18925"/>
<path d="M50.1612 40.9199C50.1834 44.9655 48.6801 48.9591 44.2887 49.3748C41.1487 49.7089 37.5089 49.4565 34.2912 49.1261C30.5885 48.7921 27.0412 47.6155 26.7154 43.1097C26.3451 37.9618 26.4229 35.0482 26.671 32.3833C26.9968 28.8165 28.4446 27.0869 31.9955 26.3409C34.8911 25.7619 38.7938 25.9994 41.7745 25.9994C44.5034 25.9994 48.5135 27.484 49.7539 30.316C50.4167 31.7227 50.1538 38.5965 50.1686 40.9199H50.1612ZM62.5321 26.545H54.5305C53.3235 26.5431 52.1666 26.0613 51.3135 25.2055C50.4604 24.3497 49.9808 23.1896 49.9798 21.9798V14.5678C48.502 14.2135 46.9892 14.0268 45.4698 14.0111C39.838 14.0111 32.5954 13.6028 26.8413 14.4713V21.9501C26.8413 22.5496 26.7235 23.1433 26.4946 23.6972C26.2657 24.251 25.9303 24.7543 25.5073 25.1782C25.0844 25.6021 24.5824 25.9384 24.0298 26.1678C23.4772 26.3972 22.885 26.5153 22.2869 26.5153H14.5222C14.5222 26.712 14.4815 26.9088 14.4593 27.1092C13.9557 32.5874 13.8002 38.5668 14.5556 49.1299C14.5556 49.3303 14.5926 49.5196 14.6111 49.7089H22.298C23.5059 49.7089 24.6643 50.1898 25.5185 51.046C26.3726 51.9021 26.8524 53.0633 26.8524 54.2741V61.0737C27.9262 61.2592 29.0222 61.4003 30.1293 61.4968C36.5203 62.1537 43.6962 62.6511 49.9909 62.0684V54.2815C49.9919 53.0713 50.4714 51.9109 51.3244 51.0545C52.1774 50.1981 53.3343 49.7155 54.5416 49.7126H62.3174C62.5981 48.0387 62.7331 46.3436 62.721 44.6463C62.6987 41.0015 63.0061 31.8971 62.5469 26.519" fill="#E7443E"/>
<path d="M49.7465 30.3011C48.506 27.4803 44.4923 25.9846 41.767 25.9846C38.7863 25.9846 34.8836 25.747 31.9881 26.326C28.4334 27.0683 26.993 28.8016 26.6635 32.3684C26.4154 35.0333 26.3414 37.9358 26.7079 43.0949C27.0338 47.6007 30.5662 48.7773 34.2838 49.1113C37.5089 49.4416 41.1487 49.694 44.2812 49.36C48.6616 48.9443 50.176 44.9506 50.1538 40.9087C50.1538 38.5816 50.4019 31.7078 49.7391 30.3011" fill="#B31829"/>
</svg>
